<?xml version="1.0" encoding="UTF-8"?>
<svg version="1.1" xmlns="http://www.w3.org/2000/svg" width="554" height="202">
<path d="M0 0 C182.82 0 365.64 0 554 0 C554 66.66 554 133.32 554 202 C371.18 202 188.36 202 0 202 C0 135.34 0 68.68 0 0 Z " fill="#3D424A" transform="translate(0,0)"/>
<path d="M0 0 C3.83084349 2.61193874 6.65161815 5.67823629 8.75 9.875 C9.81448398 16.61307384 9.3776654 21.76122179 5.5625 27.5 C4.41784357 29.04770446 3.27099622 30.5941252 2.09375 32.1171875 C0.61559406 34.05082172 -0.8040825 36.01946549 -2.21875 38 C-4.97427621 41.85731179 -7.75545074 45.69515114 -10.54443359 49.52832031 C-12.74862882 52.56106072 -14.94365284 55.60035883 -17.13745117 58.640625 C-18.21102514 60.1281873 -19.28540478 61.61516849 -20.3605957 63.1015625 C-23.15668564 66.96767749 -25.94181171 70.84107943 -28.7109375 74.7265625 C-29.28263672 75.52578125 -29.85433594 76.325 -30.44335938 77.1484375 C-31.52360105 78.65901936 -32.60069886 80.17185716 -33.67382812 81.6875 C-45.00219254 97.4972537 -45.00219254 97.4972537 -53.25 99.875 C-59.11883611 100.77357778 -64.16296811 100.22524363 -69.359375 97.2890625 C-73.36068389 94.296348 -77.0062257 90.3625486 -79.25 85.875 C-79.42641478 83.67126122 -79.51753608 81.46033143 -79.5625 79.25 C-79.59988281 78.06148438 -79.63726562 76.87296875 -79.67578125 75.6484375 C-78.78273011 67.73387422 -73.95200061 61.7457768 -69.3125 55.5 C-68.15614163 53.92065226 -66.99989498 52.34122271 -65.84375 50.76171875 C-65.25207031 49.95782715 -64.66039063 49.15393555 -64.05078125 48.32568359 C-61.11862591 44.33531276 -58.21506892 40.32441443 -55.3125 36.3125 C-54.79373291 35.59980957 -54.27496582 34.88711914 -53.74047852 34.15283203 C-50.1112457 29.14534304 -46.64737933 24.04236643 -43.25 18.875 C-41.6 19.205 -39.95 19.535 -38.25 19.875 C-39.80534501 24.65927763 -42.5128284 28.09060127 -45.5625 32 C-50.83509756 38.88420651 -55.78846626 45.94042937 -60.64672852 53.12158203 C-64.26360161 58.46069697 -67.97906167 63.69173735 -71.859375 68.84375 C-74.63021845 72.89104942 -74.8426622 77.12523581 -74.25 81.875 C-72.91334205 86.32784245 -70.99108267 89.78030819 -67.0625 92.375 C-62.88892586 94.39013773 -58.7900723 94.59315689 -54.25 93.875 C-50.89838754 92.49285878 -50.89838754 92.49285878 -48.25 90.875 C-47.59 90.875 -46.93 90.875 -46.25 90.875 C-45.9725293 90.28976563 -45.69505859 89.70453125 -45.40917969 89.1015625 C-44.30919381 86.9887 -43.11142459 85.16716382 -41.703125 83.25 C-41.19523437 82.55390625 -40.68734375 81.8578125 -40.1640625 81.140625 C-39.61492187 80.39296875 -39.06578125 79.6453125 -38.5 78.875 C-33.67735691 72.25738213 -28.92848779 65.59528402 -24.25 58.875 C-19.66182144 52.29048722 -15.01921214 45.75029762 -10.3125 39.25 C-9.50486206 38.12561523 -9.50486206 38.12561523 -8.6809082 36.97851562 C-6.46538454 33.89857453 -4.23738342 30.85905231 -1.8828125 27.8828125 C1.9140772 22.98802698 3.77077246 19.38941737 3.32421875 13.078125 C2.43057884 9.64946574 0.51337316 7.96437971 -2.25 5.875 C-2.745 5.38 -2.745 5.38 -3.25 4.875 C-5.21352088 4.59750923 -5.21352088 4.59750923 -7.5 4.5625 C-8.65242188 4.50642578 -8.65242188 4.50642578 -9.828125 4.44921875 C-14.57722302 5.28414082 -17.18476967 8.6250685 -19.90625 12.3515625 C-20.86113505 13.72957228 -21.80865916 15.11270269 -22.75 16.5 C-23.81281503 18.03583977 -24.87665109 19.57097338 -25.94140625 21.10546875 C-26.75955811 22.28955322 -26.75955811 22.28955322 -27.59423828 23.49755859 C-30.24480768 27.30340418 -32.96460659 31.05822005 -35.6875 34.8125 C-36.22117188 35.54976318 -36.75484375 36.28702637 -37.3046875 37.04663086 C-38.39403816 38.55150871 -39.48372126 40.05614596 -40.57373047 41.56054688 C-43.46938369 45.55862327 -46.35953713 49.56067049 -49.25 53.5625 C-49.77779053 54.29267334 -50.30558105 55.02284668 -50.84936523 55.77514648 C-51.84481903 57.15291571 -52.83855323 58.53192948 -53.83032227 59.91235352 C-54.78163678 61.22750698 -55.74322226 62.53528805 -56.71459961 63.83569336 C-58.80763945 66.66592317 -60.19190639 68.54580287 -60.8125 72.0625 C-60.419411 74.95602265 -60.419411 74.95602265 -58.625 77.3125 C-56.31578919 79.1676861 -56.31578919 79.1676861 -53.328125 78.72265625 C-49.71560802 77.72783876 -48.82438938 76.84769066 -46.625 73.875 C-45.94824219 72.97007813 -45.27148438 72.06515625 -44.57421875 71.1328125 C-43.79741677 70.04834934 -43.02284275 68.96228826 -42.25 67.875 C-41.80350098 67.25463867 -41.35700195 66.63427734 -40.89697266 65.99511719 C-33.52066197 55.7348166 -26.38183693 45.30601346 -19.25 34.875 C-17.6 35.535 -15.95 36.195 -14.25 36.875 C-17.31487497 42.53900913 -20.88263199 47.6078388 -24.75 52.75 C-28.45178281 57.70763175 -32.1352413 62.66832618 -35.66015625 67.75390625 C-36.19253906 68.5217041 -36.72492188 69.28950195 -37.2734375 70.08056641 C-38.27317657 71.53037836 -39.26702367 72.98427736 -40.25390625 74.44287109 C-46.34187627 83.25702371 -46.34187627 83.25702371 -51.75 84.40625 C-55.90609986 84.35429875 -58.56799705 84.25862666 -62.25 82.1875 C-65.21921159 78.7543491 -66.08123789 76.20855158 -66.6484375 71.7265625 C-66.10159173 66.44038674 -63.76954741 63.6730177 -60.5625 59.5625 C-59.36157064 57.96384847 -58.16106147 56.36488123 -56.9609375 54.765625 C-56.3431543 53.95416016 -55.72537109 53.14269531 -55.08886719 52.30664062 C-52.22560091 48.52037773 -49.45779918 44.66701229 -46.6875 40.8125 C-46.15334473 40.07338379 -45.61918945 39.33426758 -45.06884766 38.57275391 C-41.32238601 33.3861293 -37.6210179 28.16895993 -33.9375 22.9375 C-32.95060724 21.53900152 -31.96363092 20.140562 -30.9765625 18.7421875 C-29.65876607 16.8752327 -28.3424651 15.00742191 -27.03417969 13.13378906 C-25.96669351 11.60553069 -24.88990607 10.08378123 -23.8125 8.5625 C-23.23628906 7.74136719 -22.66007812 6.92023437 -22.06640625 6.07421875 C-16.1065059 -1.14174662 -8.7783901 -3.03867349 0 0 Z " fill="#AC65F6" transform="translate(150.25,52.125)"/>
<path d="M0 0 C4.95893049 2.65618739 8.21934292 5.9509975 9.99609375 11.28125 C10.51775432 16.24985315 10.56849885 20.13643979 8.30859375 24.65625 C4.63644272 28.82463765 1.42830917 31.92089692 -4.2734375 32.51953125 C-10.08518361 32.6891521 -13.46370729 32.28094908 -18.00390625 28.28125 C-22.6267156 23.03373668 -23.35721625 19.9337061 -23.28515625 13.04296875 C-22.76310299 7.91669581 -20.1282709 5.29592054 -16.44140625 1.96875 C-11.61424904 -1.37312807 -5.55031666 -1.99075685 0 0 Z " fill="#D55AF7" transform="translate(400.00390625,95.71875)"/>
<path d="M0 0 C2.78072717 1.89903319 3.39110189 2.6778053 4.5625 5.75 C4.88134766 8.59082031 4.88134766 8.59082031 4.9765625 11.828125 C5.01523438 12.98828125 5.05390625 14.1484375 5.09375 15.34375 C5.1246875 16.5503125 5.155625 17.756875 5.1875 19 C5.22617188 20.22203125 5.26484375 21.4440625 5.3046875 22.703125 C5.39892108 25.7185994 5.48453455 28.73406828 5.5625 31.75 C2.6875 31.875 2.6875 31.875 -0.4375 31.75 C-1.0975 31.09 -1.7575 30.43 -2.4375 29.75 C-3.05625 30.08 -3.675 30.41 -4.3125 30.75 C-8.7224923 32.16119754 -12.84872647 32.38293428 -17.4375 31.75 C-20.37173195 29.95353146 -21.90955355 28.8058929 -23.4375 25.75 C-23.8125 22.9375 -23.8125 22.9375 -23.4375 19.75 C-18.80091251 14.23622028 -14.31771042 12.03501984 -7.4375 10.75 C-4.4375 10.625 -4.4375 10.625 -2.4375 10.75 C-2.7675 9.43 -3.0975 8.11 -3.4375 6.75 C-11.98574466 6.59126912 -11.98574466 6.59126912 -20.4375 7.75 C-20.7675 6.1 -21.0975 4.45 -21.4375 2.75 C-14.64315781 -1.59082973 -7.70484114 -2.80176041 0 0 Z " fill="#8571F7" transform="translate(240.4375,96.25)"/>
<path d="M0 0 C2.64 0 5.28 0 8 0 C9.00605593 2.60197202 10.00502525 5.20629362 11 7.8125 C11.28617187 8.55048828 11.57234375 9.28847656 11.8671875 10.04882812 C12.13789063 10.76103516 12.40859375 11.47324219 12.6875 12.20703125 C13.06455078 13.18893433 13.06455078 13.18893433 13.44921875 14.19067383 C14 16 14 16 14 19 C14.66 19 15.32 19 16 19 C16.17015625 18.46632813 16.3403125 17.93265625 16.515625 17.3828125 C18.43463324 11.4828829 20.64054239 5.73695531 23 0 C24.32 0 25.64 0 27 0 C29.64 6.27 32.28 12.54 35 19 C38.465 9.595 38.465 9.595 42 0 C44.64 0 47.28 0 50 0 C48.01428908 6.97292549 45.71390457 13.75280664 43.0625 20.5 C42.72798828 21.39203125 42.39347656 22.2840625 42.04882812 23.203125 C41.54706055 24.47929688 41.54706055 24.47929688 41.03515625 25.78125 C40.7400415 26.54501953 40.44492676 27.30878906 40.14086914 28.09570312 C38.75416219 30.41034344 37.47491371 31.02694046 35 32 C33.68253667 29.41909233 32.37090383 26.83549542 31.0625 24.25 C30.68931641 23.52039063 30.31613281 22.79078125 29.93164062 22.0390625 C29.39506836 20.97558594 29.39506836 20.97558594 28.84765625 19.890625 C28.51773682 19.24125977 28.18781738 18.59189453 27.84790039 17.92285156 C26.98547884 15.96706921 26.45625821 14.08459306 26 12 C25.34 12 24.68 12 24 12 C23.91878906 12.66386719 23.83757812 13.32773438 23.75390625 14.01171875 C22.75192188 17.98331482 20.91366546 21.24584559 18.9375 24.8125 C18.56044922 25.50537109 18.18339844 26.19824219 17.79492188 26.91210938 C16.86916148 28.61128985 15.93537688 30.30609425 15 32 C12 31 12 31 10.55786133 28.1484375 C10.0542845 26.89523722 9.5631365 25.63699774 9.08203125 24.375 C8.68886971 23.38185791 8.68886971 23.38185791 8.2877655 22.36865234 C7.45211523 20.24974276 6.63242463 18.12503733 5.8125 16 C5.24903688 14.56731858 4.68459561 13.13502144 4.11914062 11.703125 C0 1.2196963 0 1.2196963 0 0 Z " fill="#E954F6" transform="translate(413,96)"/>
<path d="M0 0 C2.33294775 -0.04241723 4.66702567 -0.04092937 7 0 C8.91219585 1.91219585 8.24435298 5.33645504 8.31640625 7.87890625 C8.33718735 8.5655687 8.35796844 9.25223114 8.37937927 9.95970154 C8.44494143 12.16052935 8.50379015 14.36147975 8.5625 16.5625 C8.60567892 18.05144514 8.649293 19.54037773 8.69335938 21.02929688 C8.8006293 24.68606553 8.90187772 28.34297318 9 32 C9.70125 31.13375 10.4025 30.2675 11.125 29.375 C12.0821244 28.24897129 13.04052613 27.12402743 14 26 C14.45761719 25.42765625 14.91523438 24.8553125 15.38671875 24.265625 C18.93273692 20.18527533 18.93273692 20.18527533 22.16015625 19.625 C24.375 19.625 24.375 19.625 28 20 C26.41332422 23.90285767 23.86649519 26.33520982 20.875 29.25 C19.96492188 30.14203125 19.05484375 31.0340625 18.1171875 31.953125 C17.41851562 32.62859375 16.71984375 33.3040625 16 34 C20.69766975 39.66129431 25.74723372 44.85228904 31 50 C30.67 50.66 30.34 51.32 30 52 C26.9375 52.5 26.9375 52.5 23 52 C21.00912835 50.24571175 19.48046058 48.33289974 17.84375 46.24609375 C14.93925716 42.7077815 11.49569232 39.9437409 8 37 C8 41.95 8 46.9 8 52 C5.69 52 3.38 52 1 52 C0 51 0 51 -0.12025452 48.94358826 C-0.11803391 48.03979935 -0.11581329 47.13601044 -0.11352539 46.20483398 C-0.11344986 45.18385117 -0.11337433 44.16286835 -0.11329651 43.11094666 C-0.10813522 42.0005452 -0.10297394 40.89014374 -0.09765625 39.74609375 C-0.0962413 38.61551041 -0.09482635 37.48492706 -0.09336853 36.32008362 C-0.08775019 32.69252935 -0.07519458 29.06503576 -0.0625 25.4375 C-0.05748736 22.98502693 -0.05292405 20.5325529 -0.04882812 18.08007812 C-0.0377748 12.05336455 -0.02101884 6.02668661 0 0 Z " fill="#9B66EB" transform="translate(285,76)"/>
<path d="M0 0 C11.22 0 22.44 0 34 0 C34 1.98 34 3.96 34 6 C33 7 33 7 30.49975586 7.11352539 C29.41573486 7.10828857 28.33171387 7.10305176 27.21484375 7.09765625 C26.04501953 7.09443359 24.87519531 7.09121094 23.66992188 7.08789062 C22.43822266 7.07951172 21.20652344 7.07113281 19.9375 7.0625 C18.08415039 7.05573242 18.08415039 7.05573242 16.19335938 7.04882812 C13.12888587 7.03699618 10.06443707 7.01906008 7 7 C7 12.28 7 17.56 7 23 C12.28 23 17.56 23 23 23 C23 24.98 23 26.96 23 29 C22 30 22 30 18.62109375 30.09765625 C17.22652508 30.09191424 15.83198403 30.07890228 14.4375 30.0625 C11.983125 30.041875 9.52875 30.02125 7 30 C7 37.26 7 44.52 7 52 C5.02 52 3.04 52 1 52 C0 51 0 51 -0.12025452 48.94358826 C-0.11803391 48.03979935 -0.11581329 47.13601044 -0.11352539 46.20483398 C-0.11344986 45.18385117 -0.11337433 44.16286835 -0.11329651 43.11094666 C-0.10813522 42.0005452 -0.10297394 40.89014374 -0.09765625 39.74609375 C-0.0962413 38.61551041 -0.09482635 37.48492706 -0.09336853 36.32008362 C-0.08775019 32.69252935 -0.07519458 29.06503576 -0.0625 25.4375 C-0.05748736 22.98502693 -0.05292405 20.5325529 -0.04882812 18.08007812 C-0.0386237 12.05334296 -0.01905186 6.02673978 0 0 Z " fill="#B964FB" transform="translate(322,76)"/>
<path d="M0 0 C13.53 0 27.06 0 41 0 C41 2.31 41 4.62 41 7 C35.72 7 30.44 7 25 7 C25.00785522 8.99148071 25.00785522 8.99148071 25.01586914 11.02319336 C25.03391426 15.93008759 25.04543021 20.83697887 25.05493164 25.74389648 C25.05997298 27.87118014 25.06680591 29.99846031 25.07543945 32.12573242 C25.08751379 35.17627826 25.09323014 38.22677845 25.09765625 41.27734375 C25.10281754 42.23462875 25.10797882 43.19191376 25.11329651 44.1782074 C25.11340981 45.49946373 25.11340981 45.49946373 25.11352539 46.84741211 C25.115746 47.62684677 25.11796661 48.40628143 25.12025452 49.20933533 C25 51 25 51 24 52 C21.5625 52.1875 21.5625 52.1875 19 52 C17 50 17 50 16.75949097 48.12704468 C16.7661528 46.98787094 16.7661528 46.98787094 16.77294922 45.82568359 C16.77310028 44.96494232 16.77325134 44.10420105 16.77340698 43.21737671 C16.78372955 42.28712677 16.79405212 41.35687683 16.8046875 40.3984375 C16.8075174 39.44683746 16.81034729 38.49523743 16.81326294 37.51480103 C16.82448011 34.46807408 16.84958737 31.42163846 16.875 28.375 C16.88502782 26.31250424 16.89415401 24.25000388 16.90234375 22.1875 C16.92442446 17.12488733 16.9589647 12.0624931 17 7 C15.85660156 7.01160156 14.71320313 7.02320312 13.53515625 7.03515625 C12.04427246 7.04453288 10.55338691 7.05363321 9.0625 7.0625 C7.93038086 7.07506836 7.93038086 7.07506836 6.77539062 7.08789062 C4.85005687 7.09652441 2.92464419 7.05224333 1 7 C0.67 6.67 0.34 6.34 0 6 C0 4.02 0 2.04 0 0 Z " fill="#7375F4" transform="translate(177,76)"/>
<path d="M0 0 C-0.50603992 2.16874252 -0.99983813 3.99967627 -2 6 C-5.96 5.67 -9.92 5.34 -14 5 C-14.33 5.99 -14.66 6.98 -15 8 C-14.10796875 8.30292969 -13.2159375 8.60585937 -12.296875 8.91796875 C-11.12640625 9.33691406 -9.9559375 9.75585938 -8.75 10.1875 C-7.58984375 10.59355469 -6.4296875 10.99960938 -5.234375 11.41796875 C-1.67776186 13.15761648 -0.12361303 14.69374533 2 18 C2.5625 21 2.5625 21 2 24 C-0.55024365 27.10164769 -2.17699247 28.72566416 -6 30 C-12.34124904 30.51765298 -17.49731886 30.56930669 -23 27 C-22.49396008 24.83125748 -22.00016187 23.00032373 -21 21 C-20.44828125 21.16371094 -19.8965625 21.32742187 -19.328125 21.49609375 C-16.73385993 22.05760414 -14.40164589 22.09739008 -11.75 22.0625 C-10.41195313 22.04896484 -10.41195313 22.04896484 -9.046875 22.03515625 C-8.37140625 22.02355469 -7.6959375 22.01195313 -7 22 C-7 21.01 -7 20.02 -7 19 C-7.73605469 18.76925781 -8.47210938 18.53851563 -9.23046875 18.30078125 C-19.67988715 14.8084393 -19.67988715 14.8084393 -23 10 C-23.66675636 6.86624509 -23.66423104 5.08600511 -21.97265625 2.3203125 C-15.76569257 -5.56573862 -8.18388751 -3.44584737 0 0 Z " fill="#956CF6" transform="translate(276,98)"/>
<path d="M0 0 C2.64 0 5.28 0 8 0 C8 17.16 8 34.32 8 52 C5.69 52 3.38 52 1 52 C-0.23080509 49.53838983 -0.12043977 47.93503007 -0.11352539 45.18310547 C-0.11344986 44.18221893 -0.11337433 43.1813324 -0.11329651 42.15011597 C-0.10813522 41.06674957 -0.10297394 39.98338318 -0.09765625 38.8671875 C-0.0962413 37.76021515 -0.09482635 36.6532428 -0.09336853 35.51272583 C-0.08775772 31.96679007 -0.07520337 28.42091677 -0.0625 24.875 C-0.05748639 22.47526133 -0.05292325 20.07552167 -0.04882812 17.67578125 C-0.03778478 11.78383275 -0.0210361 5.89192084 0 0 Z " fill="#BD5CEB" transform="translate(362,76)"/>
<path d="M0 0 C2.86830829 2.01391859 4.61592935 3.45434983 5.48046875 6.93359375 C5.76222935 10.96200883 5.27805279 12.62661482 2.8125 15.9375 C-0.11277654 18.08270279 -1.39917454 19 -5 19 C-11.45985401 16.81021898 -11.45985401 16.81021898 -14 13 C-14.66923077 6.08461538 -14.66923077 6.08461538 -12.1875 2.0625 C-8.23971834 -1.65969413 -5.06507729 -1.22260486 0 0 Z " fill="#474954" transform="translate(398,103)"/>
<path d="M0 0 C-1.58667578 3.90285767 -4.13350481 6.33520982 -7.125 9.25 C-8.03507812 10.14203125 -8.94515625 11.0340625 -9.8828125 11.953125 C-10.93082031 12.96632813 -10.93082031 12.96632813 -12 14 C-7.30233025 19.66129431 -2.25276628 24.85228904 3 30 C2.67 30.66 2.34 31.32 2 32 C-1.0625 32.5 -1.0625 32.5 -5 32 C-7.00432156 30.2743061 -8.52299227 28.39119166 -10.15625 26.3125 C-12.10847299 23.86394914 -14.20842346 21.6976811 -16.4375 19.5 C-17.11683594 18.8296875 -17.79617188 18.159375 -18.49609375 17.46875 C-18.99238281 16.9840625 -19.48867188 16.499375 -20 16 C-18.34038315 11.83071864 -15.33861473 8.89888038 -12.25 5.75 C-11.48042969 4.91855469 -11.48042969 4.91855469 -10.6953125 4.0703125 C-7.21327676 0.51828609 -5.20366941 -0.71667303 0 0 Z " fill="#AC68FC" transform="translate(313,96)"/>
<path d="M0 0 C0 2.31 0 4.62 0 7 C-4.77830905 9.91360308 -7.55106131 10.19876651 -13 9 C-13.125 6.625 -13.125 6.625 -13 4 C-9.38656695 0.38656695 -4.97659681 -0.29274099 0 0 Z " fill="#3F4352" transform="translate(238,113)"/>
</svg>
